<?xml version="1.0" standalone="no"?>
<!DOCTYPE svg PUBLIC "-//W3C//DTD SVG 20010904//EN"
 "http://www.w3.org/TR/2001/REC-SVG-20010904/DTD/svg10.dtd">
<svg version="1.0" xmlns="http://www.w3.org/2000/svg"
 width="1000.000000pt" height="1000.000000pt" viewBox="0 0 1000.000000 1000.000000"
 preserveAspectRatio="xMidYMid meet">

<g transform="translate(0.000000,1000.000000) scale(0.100000,-0.100000)"
fill="#000000" stroke="none">
<path d="M1530 5005 l0 -3525 545 0 545 0 2 1403 3 1402 33 95 c127 368 376
653 715 820 66 33 127 60 134 60 11 0 13 -351 13 -1890 l0 -1890 545 0 545 0
0 270 c0 149 2 270 5 270 3 0 29 -17 58 -38 326 -241 777 -418 1217 -478 172
-24 528 -24 700 0 303 41 558 117 825 245 1174 564 1782 1874 1455 3134 -192
743 -694 1371 -1381 1726 -269 140 -534 226 -845 277 -135 21 -517 30 -670 14
-437 -44 -856 -192 -1217 -429 -76 -50 -140 -91 -143 -91 -2 0 -4 484 -4 1075
l0 1075 -545 0 -545 0 0 -1083 0 -1084 -140 -36 c-78 -21 -185 -53 -238 -73
-123 -45 -333 -147 -437 -212 l-80 -50 -3 1269 -2 1269 -545 0 -545 0 0 -3525z
m5015 745 c423 -91 772 -326 1010 -680 492 -733 296 -1731 -438 -2223 -363
-244 -807 -328 -1234 -236 -663 144 -1169 697 -1253 1373 -17 130 -7 380 19
508 138 679 690 1191 1381 1281 19 3 121 4 225 2 147 -3 212 -8 290 -25z"/>
<path d="M6096 4784 c-167 -40 -312 -158 -392 -316 -171 -340 10 -745 381
-854 73 -21 217 -23 295 -5 215 51 399 235 451 451 19 77 16 222 -5 295 -62
211 -232 377 -441 430 -73 19 -210 18 -289 -1z"/>
</g>
</svg>
